<svg xmlns="http://www.w3.org/2000/svg" width="36" height="36" viewBox="0 0 36 36">
    <path fill="#AD002E" fill-rule="evenodd" d="M13.672 11.822c.839 0 1.684.346 2.341 1.033l1.28 1.344c.257.27.684.28.954.022l.023-.022 1.273-1.337c1.314-1.375 3.361-1.375 4.676 0 1.314 1.376 1.314 3.603 0 4.979-2.147 2.246-4.295 4.49-6.441 6.736l-6.44-6.743c-1.314-1.378-1.315-3.603 0-4.979.656-.687 1.494-1.033 2.334-1.033m0-1.322c-1.203 0-2.405.47-3.312 1.42-1.815 1.899-1.812 4.942 0 6.842l6.926 7.263c.257.27.684.28.954.023l.023-.023 6.933-7.256c1.814-1.9 1.814-4.943 0-6.842-1.814-1.898-4.809-1.898-6.624 0l-.794.823-.795-.83c-.907-.95-2.109-1.42-3.311-1.42"/>
</svg>
