<svg xmlns="http://www.w3.org/2000/svg" xmlns:xlink="http://www.w3.org/1999/xlink" width="50" height="77" viewBox="0 0 50 77">
    <defs>
        <path id="bdniub8dva" d="M0.041 0.27L46.748 0.27 46.748 62.182 0.041 62.182z"/>
    </defs>
    <g fill="none" fill-rule="evenodd">
        <g transform="translate(1.846 13.818)">
            <mask id="hb10m9ywvb" fill="#fff">
                <use xlink:href="#bdniub8dva"/>
            </mask>
            <path fill="#FFFFFE" d="M.041 31.226C.041 14.13 10.498.27 23.395.27c12.898 0 23.353 13.86 23.353 30.956S36.293 62.182 23.395 62.182C10.498 62.182.041 48.322.041 31.226" mask="url(#hb10m9ywvb)"/>
        </g>
        <path fill="#931430" d="M41.426 47.754c.277 1.182.42 2.414.42 3.68 0 8.904-7.232 16.122-16.154 16.122S9.538 60.338 9.538 51.434c0-8.903 7.232-16.12 16.154-16.12 4.455 0 8.488 1.799 11.424 4.708l-2.626 2.663c-2.254-2.288-5.328-3.657-8.798-3.657-6.865 0-12.43 5.555-12.43 12.406 0 6.852 5.565 12.406 12.43 12.406 6.865 0 12.438-5.554 12.438-12.406h-4.649V47.76l7.945-.005z"/>
        <path fill="#F3B229" d="M23.445 34.317c-1.187-.833-1.972-2.216-1.972-3.779 0-2.547 2.06-4.611 4.604-4.611 2.543 0 4.605 2.064 4.622 4.611h3.658c-.017-4.57-3.717-8.275-8.28-8.275-4.564 0-8.262 3.705-8.262 8.275 0 2.786 1.375 5.251 3.483 6.751l9.986 6.716c2.52 1.937 3.434 5.122 3.434 7.001 0 4.78-3.868 8.654-8.641 8.654-4.771 0-8.642-3.873-8.642-8.654 0-1.24.324-2.62.792-3.687h-3.554c-.374 1.159-.52 2.405-.52 3.687 0 6.596 5.338 11.943 11.924 11.943C32.662 62.95 38 57.602 38 51.006c0-3.933-1.893-7.422-4.821-9.598l-9.734-7.091z"/>
        <path fill="#931430" d="M37.326 51.434h-4.71v-3.833l8.036-.005c.28 1.233.425 2.518.425 3.838h-3.75z"/>
        <path fill="#1A1919" d="M21.077 51.434h-.695v-2.652h-.844v-.504c.147 0 .291-.017.433-.048.141-.036.255-.087.337-.151.086-.07.156-.144.208-.222.058-.08.09-.166.1-.261h.46v3.838zM23.32 48.2c-.193 0-.34.047-.44.143-.101.094-.168.185-.203.27-.028.086-.044.175-.044.271 0 .092.016.179.044.26.035.08.103.164.209.257.109.088.262.132.46.132.189 0 .336-.044.442-.132.109-.093.178-.178.208-.256.03-.079.044-.164.044-.255 0-.114-.02-.218-.065-.318-.036-.102-.088-.177-.15-.225-.058-.048-.133-.084-.221-.107-.088-.028-.182-.04-.283-.04zm-.555 2.269c-.015.082.023.17.12.266.1.09.22.138.36.138h.076c.147 0 .273-.033.379-.098.103-.069.176-.144.214-.23.042-.084.075-.174.101-.27.03-.1.043-.188.043-.266 0-.065-.012-.127-.037-.184-.122.13-.24.21-.354.24-.11.03-.192.052-.25.062-.056.01-.106.014-.154.014h-.195c-.067-.01-.157-.021-.27-.035-.11-.017-.247-.075-.41-.174-.165-.1-.297-.235-.398-.41-.096-.176-.144-.385-.144-.628 0-.27.061-.497.188-.685.13-.188.304-.335.524-.444.219-.113.464-.169.737-.169.075 0 .152.004.228.015.177 0 .397.065.663.199.268.13.435.297.496.501.08.147.14.314.178.502.042.188.063.381.063.582 0 .273-.034.542-.101.809-.064.262-.163.493-.297.695-.13.197-.318.337-.561.42-.243.077-.483.115-.718.115-.467 0-.816-.116-1.047-.352-.232-.234-.33-.44-.297-.613h.863zM26.991 50.537c.084-.185.126-.525.126-1.022 0-.496-.028-.809-.088-.939-.057-.13-.138-.217-.24-.257-.1-.044-.21-.067-.328-.067-.121 0-.23.022-.328.063-.096.037-.176.122-.237.257-.06.132-.09.447-.09.943 0 .497.03.81.09.94.057.13.137.218.237.261.102.042.21.062.328.062.122 0 .231-.018.329-.057.096-.04.163-.102.201-.184m-1.614.544c-.169-.169-.285-.385-.353-.652-.066-.271-.1-.575-.1-.914 0-.331.034-.633.1-.903.068-.274.173-.482.315-.622.143-.143.31-.244.497-.302.19-.062.399-.092.625-.092.224 0 .43.03.618.092.194.058.362.159.505.302.142.14.247.346.317.617.066.267.099.57.099.908 0 .333-.033.635-.1.909-.069.27-.174.477-.316.62-.143.141-.308.24-.497.298-.19.062-.399.092-.626.092-.223 0-.43-.03-.625-.092-.187-.057-.342-.145-.46-.261"/>
        <path fill="#1A1919" d="M28.098 50.35c0 .135.044.248.133.335.09.088.267.132.526.132.228 0 .398-.067.503-.2.103-.137.156-.304.156-.504 0-.217-.042-.372-.126-.467-.08-.094-.168-.16-.263-.193-.093-.04-.19-.058-.295-.058h-.068c-.115.007-.216.035-.31.084-.087.045-.152.108-.194.189h-.796l.402-2.072h2.372v.66h-1.833l-.15.766c.07-.038.144-.071.219-.099.074-.032.146-.055.213-.073.073-.017.126-.029.164-.032.042-.006.1-.011.175-.011.07 0 .141.005.206.011.072.007.212.04.415.1.206.06.383.2.534.42.15.216.227.46.227.733 0 .294-.077.543-.227.75-.15.206-.326.36-.526.461-.198.103-.46.152-.785.152-.276 0-.491-.023-.648-.072-.15-.05-.299-.123-.445-.22-.141-.1-.254-.21-.332-.337-.074-.125-.114-.277-.114-.455h.867z"/>
        <path fill="#F3B229" d="M12.615 15.183L8.292 13.155 8.829 8.444 5.709 12.046.849 9.871 3.418 14.694.308 18.282 4.748 17.248 7.149 21.495 7.954 16.521zM37.231 15.183L41.554 13.155 41.019 8.444 44.137 12.046 48.997 9.871 46.429 14.694 49.538 18.282 45.099 17.248 42.697 21.495 41.893 16.521zM24.116 10.565L21.351 6.619 24.154 2.929 19.648 4.347 16.488 0 16.336 5.391 11.846 6.805 16.231 8.231 16.218 13.051 19.386 9.279zM27.269 10.564L30.034 6.62 27.231 2.929 31.737 4.348 34.897 0 35.049 5.391 39.538 6.805 35.154 8.231 35.166 13.051 31.998 9.279z"/>
    </g>
</svg>
