<svg xmlns="http://www.w3.org/2000/svg" xmlns:xlink="http://www.w3.org/1999/xlink" width="46" height="46" viewBox="0 0 46 46">
    <defs>
        <path id="418snkugaa" d="M0 0.098L13.387 0.098 13.387 13.5 0 13.5z"/>
    </defs>
    <g fill="none" fill-rule="evenodd" transform="translate(1 1)">
        <g>
            <g transform="translate(15 15.188) translate(0 .14)">
                <mask id="dw9f451bgb" fill="#fff">
                    <use xlink:href="#418snkugaa"/>
                </mask>
                <path fill="#FFF" d="M12.2 6.795h-.026c0-.563.015-1.125-.004-1.687-.019-.57-.032-1.145-.118-1.707-.142-.936-.664-1.602-1.59-1.875-.383-.114-.795-.167-1.196-.179-1.138-.033-2.277-.044-3.416-.036-.79.005-1.583.026-2.37.09-1.116.09-1.916.79-2.12 1.883-.11.596-.132 1.213-.144 1.821-.021 1.124-.018 2.249 0 3.373.008.57.028 1.146.116 1.707.158.997.734 1.655 1.729 1.922.535.143 1.083.144 1.628.154.91.016 1.819.026 2.728.014.83-.01 1.66-.037 2.488-.09.472-.032.913-.197 1.295-.495.635-.495.877-1.185.915-1.95.049-.98.06-1.963.086-2.945M6.693 13.5c-.914-.016-1.828-.024-2.742-.05-.77-.023-1.515-.166-2.184-.575C.88 12.333.362 11.528.15 10.52.023 9.913.01 9.296.007 8.681c-.009-1.334-.01-2.67.004-4.004.008-.702.032-1.407.267-2.082C.728 1.3 1.64.517 2.971.26 3.567.147 4.184.12 4.793.111 6.127.09 7.462.095 8.796.11c.703.008 1.408.03 2.084.264 1.3.449 2.088 1.363 2.344 2.7.114.595.141 1.213.15 1.821.02 1.34.015 2.68 0 4.019-.009.702-.034 1.407-.27 2.082-.45 1.288-1.36 2.069-2.684 2.326-.599.117-1.222.129-1.835.153-.63.025-1.261.005-1.892.005v.02" mask="url(#dw9f451bgb)"/>
            </g>
            <path fill="#FFF" d="M4.462 6.937c.004 1.222 1.015 2.229 2.235 2.225 1.223-.004 2.229-1.014 2.225-2.235-.003-1.222-1.016-2.23-2.235-2.225-1.224.005-2.228 1.014-2.225 2.235m2.22 3.432c-1.909 0-3.427-1.533-3.427-3.458.001-1.903 1.539-3.417 3.469-3.416 1.89.002 3.406 1.543 3.405 3.465 0 1.888-1.54 3.41-3.446 3.409M11.068 3.362c0 .443-.355.804-.795.808-.441.005-.816-.364-.819-.806-.003-.445.361-.807.81-.807.459 0 .804.346.804.805" transform="translate(15 15.188)"/>
        </g>
        <circle cx="22" cy="22" r="22" stroke="#FFF"/>
    </g>
</svg>
