<svg xmlns="http://www.w3.org/2000/svg" width="46" height="47" viewBox="0 0 46 47">
    <g fill="none" fill-rule="evenodd" transform="translate(1 1.195)">
        <path fill="#FFF" fill-rule="nonzero" d="M16.565 14C15.7 14 15 14.7 15 15.565c0 .864.7 1.564 1.565 1.564.864 0 1.564-.7 1.564-1.564 0-.865-.7-1.565-1.564-1.565zm8.22 4.153c-1.304 0-2.172.715-2.531 1.394h-.057v-1.195h-2.56V27h2.674v-4.267c0-1.127.224-2.219 1.621-2.219 1.376 0 1.394 1.273 1.394 2.276V27H28v-4.75c0-2.326-.494-4.097-3.214-4.097zm-9.529.2V27h2.702v-8.648h-2.702z"/>
        <circle cx="22" cy="22" r="22" stroke="#FFF"/>
    </g>
</svg>
