<svg xmlns="http://www.w3.org/2000/svg" xmlns:xlink="http://www.w3.org/1999/xlink" width="120" height="120" viewBox="0 0 120 120">
    <defs>
        <path id="fvz4zbfswa" d="M0 0H120V120H0z"/>
    </defs>
    <g fill="none" fill-rule="evenodd">
        <mask id="ky64d1p1vb" fill="#fff">
            <use xlink:href="#fvz4zbfswa"/>
        </mask>
        <g mask="url(#ky64d1p1vb)">
            <g>
                <path stroke="#FFF" stroke-width="3" d="M35 1.5c9.25 0 17.626 3.75 23.688 9.812C64.75 17.374 68.5 25.749 68.5 35c0 9.25-3.75 17.626-9.812 23.688C52.626 64.75 44.251 68.5 35 68.5c-9.25 0-17.626-3.75-23.688-9.812C5.25 52.626 1.5 44.251 1.5 35c0-9.25 3.75-17.626 9.812-23.688C17.374 5.25 25.749 1.5 35 1.5z" transform="translate(25 25)"/>
                <path fill="#FFF" d="M31.092 25.09l14.249 9.066c.466.297.603.915.307 1.38-.079.124-.184.23-.307.308L31.092 44.91c-.466.296-1.084.159-1.38-.307-.102-.16-.156-.347-.156-.537V25.933c0-.553.447-1 1-1 .19 0 .376.054.536.156z" transform="translate(25 25)"/>
            </g>
        </g>
    </g>
</svg>
