<svg xmlns="http://www.w3.org/2000/svg" width="56" height="38" viewBox="0 0 56 38">
    <path fill="#FFF" d="M38.937 37.254c4.248-1.904 8.118-5.005 11.609-9.302 3.491-4.297 5.237-8.789 5.237-13.476 0-4.004-1.16-7.312-3.48-9.925C49.985 1.94 47.14.633 43.772.633c-2.88 0-5.103.818-6.665 2.453-1.563 1.636-2.344 3.675-2.344 6.116 0 2.54.867 4.468 2.6 5.786 1.734 1.319 3.577 1.978 5.53 1.978.44 0 2.1-.171 4.98-.513.635 0 1.136.159 1.502.476.366.318.55.745.55 1.282 0 1.709-.513 3.589-1.539 5.64-2.05 4.003-5.664 7.495-10.84 10.473l1.392 2.93zm-34.424 0c4.102-1.856 7.947-4.87 11.536-9.046 3.589-4.174 5.383-8.947 5.383-14.318 0-3.467-1.123-6.543-3.369-9.229C15.817 1.976 12.936.633 9.42.633c-3.076 0-5.346.89-6.811 2.673C1.144 5.088.412 7.005.412 9.056c0 2.978 1.147 5.175 3.442 6.591 1.465.88 3.003 1.319 4.614 1.319.489 0 2.198-.171 5.127-.513.733 0 1.233.195 1.502.586.268.39.403.855.403 1.392 0 3.076-1.185 5.944-3.553 8.606-2.368 2.66-5.285 5.09-8.752 7.287l1.318 2.93z" opacity=".2"/>
</svg>
