<svg xmlns="http://www.w3.org/2000/svg" width="56" height="38" viewBox="0 0 56 38">
    <path fill="#FFF" d="M12.325 37.474c2.88 0 5.102-.83 6.665-2.49 1.562-1.66 2.343-3.687 2.343-6.08 0-2.832-.94-4.834-2.82-6.006-1.88-1.171-3.625-1.757-5.236-1.757-.244 0-1.953.17-5.127.512-.586 0-1.062-.146-1.428-.44-.367-.292-.55-.732-.55-1.317 0-2.979 1.209-5.92 3.626-8.826 2.417-2.905 5.334-5.335 8.752-7.288L17.16.852c-4.297 1.954-8.191 5.079-11.682 9.376C1.985 14.524.24 18.992.24 23.63c0 4.004 1.172 7.312 3.515 9.924 2.344 2.612 5.2 3.919 8.57 3.919zm34.35 0c3.272 0 5.603-.94 6.995-2.82 1.392-1.88 2.087-3.821 2.087-5.823 0-2.539-.89-4.456-2.673-5.75-1.782-1.293-3.577-1.94-5.383-1.94-.293 0-2.002.17-5.127.512-.733 0-1.245-.183-1.538-.549-.293-.366-.44-.818-.44-1.355 0-2.978 1.209-5.896 3.626-8.752 2.417-2.857 5.334-5.262 8.752-7.215L51.583.852c-4.2 1.905-8.07 4.969-11.61 9.192-3.54 4.224-5.31 8.948-5.31 14.173 0 3.418 1.124 6.482 3.37 9.192s5.127 4.065 8.642 4.065z" opacity=".2"/>
</svg>
