<svg xmlns="http://www.w3.org/2000/svg" width="46" height="46" viewBox="0 0 46 46">
    <g fill="none" fill-rule="evenodd" transform="translate(1 1)">
        <path fill="#FFF" d="M28.5 17.49c-.497.22-1.03.37-1.59.436.572-.342 1.01-.884 1.217-1.529-.536.317-1.129.547-1.76.672-.505-.538-1.224-.874-2.02-.874-1.53 0-2.77 1.239-2.77 2.765 0 .216.024.428.071.63-2.301-.116-4.342-1.216-5.707-2.89-.24.408-.375.883-.375 1.39 0 .96.49 1.806 1.232 2.302-.454-.015-.881-.14-1.255-.347v.034c0 1.34.955 2.457 2.221 2.712-.232.062-.476.097-.73.097-.178 0-.351-.018-.52-.052.352 1.1 1.374 1.899 2.586 1.92-.948.742-2.142 1.183-3.44 1.183-.223 0-.443-.014-.66-.038 1.226.786 2.68 1.244 4.245 1.244 5.094 0 7.88-4.214 7.88-7.868l-.01-.358c.544-.387 1.015-.874 1.385-1.428z"/>
        <circle cx="22" cy="22" r="22" stroke="#FFF"/>
    </g>
</svg>
