<svg xmlns="http://www.w3.org/2000/svg" width="46" height="47" viewBox="0 0 46 47">
    <g fill="none" fill-rule="evenodd" transform="translate(1 1.195)">
        <path fill="#FFF" d="M25.813 21.618l-5.075 2.685c-.064.034-.142.009-.175-.057-.01-.019-.015-.04-.015-.06v-5.371c0-.074.06-.134.131-.133.02 0 .04.005.06.015l5.074 2.685c.064.034.09.115.057.18-.013.026-.033.046-.057.059v-.003zm2.283-6.16H16.904c-1.58 0-2.862 1.323-2.862 2.954v6.176c0 1.631 1.281 2.954 2.862 2.954h11.192c1.58 0 2.862-1.323 2.862-2.954v-6.176c0-1.631-1.281-2.954-2.862-2.954z"/>
        <circle cx="22" cy="22" r="22" stroke="#FFF"/>
    </g>
</svg>
